<svg xmlns="http://www.w3.org/2000/svg" width="411" height="263" fill="none" viewBox="0 0 411 263"><path fill="#ABABAB" d="M48 63H352V223C352 225.209 350.209 227 348 227H52C49.7909 227 48 225.209 48 223V63Z"/><path fill="#4E4E4E" stroke="#4E4E4E" stroke-width=".5" d="M200.095 0.768747L200 0.729733L199.905 0.768747L48.3506 63.0187L48.4456 63.5H351.554L351.649 63.0187L200.095 0.768747Z"/><path fill="#4E4E4E" d="M200 126L48.4456 63.75L351.554 63.75L200 126Z"/><path fill="#4E4E4E" d="M200 126L48.4456 63.75L351.554 63.75L200 126Z"/><path fill="#4E4E4E" d="M200 126L48.4456 63.75L351.554 63.75L200 126Z"/><rect width="243" height="109" x="83" y="17" fill="#D9D9D9" rx="4"/><path fill="#ABABAB" d="M298.761 216.282L156.266 145.147L349.202 65.2163L298.761 216.282Z"/><path fill="#ABABAB" d="M112.866 218.509L57.4252 69.206L252.915 142.671L112.866 218.509Z"/><rect width="74" height="8" x="97" y="32" fill="#7A7A7A"/><rect width="39" height="8" x="97" y="52" fill="#7A7A7A"/><circle cx="205" cy="78" r="31" fill="#F0FF1E"/><rect width="36.476" height="5.769" x="195.249" y="90.937" fill="#ABABAB" rx="2.885" transform="rotate(-45.3223 195.249 90.937)"/><rect width="18.599" height="5.769" x="198.151" y="94.231" fill="#ABABAB" rx="2.885" transform="rotate(-135 198.151 94.2307)"/></svg>